# Blender v2.79 (sub 0) OBJ File: 'balloon.blend'
# www.blender.org
mtllib balloon.mtl
v 0.000000 -0.316404 -0.000000
v 0.167143 -0.120629 0.121435
v -0.063842 -0.120629 0.196487
v -0.206599 -0.120628 -0.000000
v -0.063842 -0.120629 -0.196487
v 0.167143 -0.120629 -0.121435
v 0.069084 0.095383 0.212622
v -0.180868 0.095383 0.131406
v -0.180868 0.095383 -0.131406
v 0.069084 0.095383 -0.212622
v 0.223564 0.095382 0.000000
v 0.000000 0.233596 -0.000000
v 0.104129 -0.229125 0.075653
v 0.060719 -0.141183 0.186870
v -0.039773 -0.229125 0.122411
v 0.104129 -0.229125 -0.075653
v 0.196487 -0.141183 -0.000000
v -0.158962 -0.141183 0.115492
v -0.128711 -0.229125 -0.000000
v -0.158962 -0.141183 -0.115492
v -0.039773 -0.229125 -0.122411
v 0.060719 -0.141183 -0.186870
v 0.232844 -0.016064 -0.075654
v 0.232844 -0.016064 0.075654
v 0.143905 -0.016064 0.198068
v 0.000000 -0.016064 0.244826
v -0.143905 -0.016064 0.198068
v -0.232844 -0.016064 0.075654
v -0.232844 -0.016064 -0.075654
v -0.143905 -0.016064 -0.198068
v 0.000000 -0.016064 -0.244826
v 0.143905 -0.016064 -0.198068
v 0.172047 0.115030 0.124999
v -0.065717 0.115031 0.202253
v -0.212662 0.115030 -0.000000
v -0.065717 0.115031 -0.202253
v 0.172047 0.115030 -0.124999
v 0.131432 0.196259 0.000000
v 0.040614 0.196260 0.124999
v -0.106331 0.196260 0.077253
v -0.106331 0.196260 -0.077253
v 0.040614 0.196260 -0.124999
vt 0.708560 0.695295
vt 0.772757 0.741937
vt 0.684039 0.770763
vt 0.852583 0.799933
vt 0.868081 0.695295
vt 0.629207 0.695295
vt 0.684039 0.619826
vt 0.772757 0.648653
vt 0.990282 0.786798
vt 0.653549 0.864604
vt 0.757855 0.847008
vt 0.708591 0.991504
vt 0.530537 0.695295
vt 0.579504 0.789059
vt 0.426857 0.786857
vt 0.653549 0.525986
vt 0.579504 0.601531
vt 0.534427 0.455675
vt 0.852583 0.590657
vt 0.757855 0.543582
vt 0.882642 0.455638
vt 0.882642 0.934952
vt 0.534427 0.934915
vt 0.426857 0.603732
vt 0.708591 0.399085
vt 0.990282 0.603792
vt 0.235255 0.471652
vt 0.160365 0.397263
vt 0.265008 0.380080
vt 0.433455 0.407252
vt 0.339565 0.455488
vt 0.355559 0.350657
vt 0.433455 0.198853
vt 0.450316 0.303052
vt 0.355559 0.255447
vt 0.235255 0.134452
vt 0.339565 0.150616
vt 0.265008 0.226024
vt 0.112758 0.303052
vt 0.160365 0.208842
vt 0.209043 0.303052
vt 0.010450 0.394038
vt 0.010450 0.212067
vt 0.290172 0.597069
vt 0.117105 0.540837
vt 0.569705 0.393777
vt 0.462743 0.540997
vt 0.462743 0.065107
vt 0.569705 0.212327
vt 0.117105 0.065268
vt 0.290172 0.009035
vt 0.290035 0.303052
vn 0.0000 -1.0000 0.0000
vn 0.5382 -0.7465 0.3910
vn -0.2056 -0.7465 0.6327
vn 0.7184 -0.4599 0.5219
vn 0.8546 -0.5193 0.0000
vn -0.6653 -0.7465 0.0000
vn -0.2056 -0.7465 -0.6327
vn 0.5382 -0.7465 -0.3910
vn 0.9472 -0.0687 0.3130
vn -0.2744 -0.4599 0.8445
vn 0.2641 -0.5193 0.8127
vn -0.0049 -0.0687 0.9976
vn -0.8880 -0.4599 0.0000
vn -0.6914 -0.5193 0.5023
vn -0.9503 -0.0687 0.3035
vn -0.2744 -0.4599 -0.8445
vn -0.6914 -0.5193 -0.5023
vn -0.5824 -0.0687 -0.8100
vn 0.7184 -0.4599 -0.5219
vn 0.2641 -0.5193 -0.8127
vn 0.5904 -0.0687 -0.8042
vn 0.5904 -0.0687 0.8042
vn -0.5824 -0.0687 0.8100
vn -0.9503 -0.0687 -0.3035
vn -0.0049 -0.0687 -0.9976
vn 0.9472 -0.0687 -0.3130
vn 0.2795 0.4266 0.8601
vn 0.6958 0.5102 0.5055
vn 0.1625 0.8506 0.5001
vn -0.7317 0.4266 0.5316
vn -0.2658 0.5102 0.8179
vn -0.4254 0.8506 0.3091
vn -0.7317 0.4266 -0.5316
vn -0.8600 0.5102 0.0000
vn -0.4254 0.8506 -0.3091
vn 0.2795 0.4266 -0.8601
vn -0.2658 0.5102 -0.8179
vn 0.1625 0.8506 -0.5001
vn 0.9044 0.4266 0.0000
vn 0.6958 0.5102 -0.5055
vn 0.5258 0.8506 0.0000
vn 0.0000 1.0000 0.0000
usemtl balloon
s 1
f 1/1/1 13/2/2 15/3/3
f 2/4/4 13/2/2 17/5/5
f 1/1/1 15/3/3 19/6/6
f 1/1/1 19/6/6 21/7/7
f 1/1/1 21/7/7 16/8/8
f 2/4/4 17/5/5 24/9/9
f 3/10/10 14/11/11 26/12/12
f 4/13/13 18/14/14 28/15/15
f 5/16/16 20/17/17 30/18/18
f 6/19/19 22/20/20 32/21/21
f 2/4/4 24/9/9 25/22/22
f 3/10/10 26/12/12 27/23/23
f 4/13/13 28/15/15 29/24/24
f 5/16/16 30/18/18 31/25/25
f 6/19/19 32/21/21 23/26/26
f 7/27/27 33/28/28 39/29/29
f 8/30/30 34/31/31 40/32/32
f 9/33/33 35/34/34 41/35/35
f 10/36/36 36/37/37 42/38/38
f 11/39/39 37/40/40 38/41/41
f 15/3/3 14/11/11 3/10/10
f 15/3/3 13/2/2 14/11/11
f 13/2/2 2/4/4 14/11/11
f 17/5/5 16/8/8 6/19/19
f 17/5/5 13/2/2 16/8/8
f 13/2/2 1/1/1 16/8/8
f 19/6/6 18/14/14 4/13/13
f 19/6/6 15/3/3 18/14/14
f 15/3/3 3/10/10 18/14/14
f 21/7/7 20/17/17 5/16/16
f 21/7/7 19/6/6 20/17/17
f 19/6/6 4/13/13 20/17/17
f 16/8/8 22/20/20 6/19/19
f 16/8/8 21/7/7 22/20/20
f 21/7/7 5/16/16 22/20/20
f 24/42/9 23/43/26 11/39/39
f 24/9/9 17/5/5 23/26/26
f 17/5/5 6/19/19 23/26/26
f 26/44/12 25/45/22 7/27/27
f 26/12/12 14/11/11 25/22/22
f 14/11/11 2/4/4 25/22/22
f 28/46/15 27/47/23 8/30/30
f 28/15/15 18/14/14 27/23/23
f 18/14/14 3/10/10 27/23/23
f 30/48/18 29/49/24 9/33/33
f 30/18/18 20/17/17 29/24/24
f 20/17/17 4/13/13 29/24/24
f 32/50/21 31/51/25 10/36/36
f 32/21/21 22/20/20 31/25/25
f 22/20/20 5/16/16 31/25/25
f 25/45/22 33/28/28 7/27/27
f 25/45/22 24/42/9 33/28/28
f 24/42/9 11/39/39 33/28/28
f 27/47/23 34/31/31 8/30/30
f 27/47/23 26/44/12 34/31/31
f 26/44/12 7/27/27 34/31/31
f 29/49/24 35/34/34 9/33/33
f 29/49/24 28/46/15 35/34/34
f 28/46/15 8/30/30 35/34/34
f 31/51/25 36/37/37 10/36/36
f 31/51/25 30/48/18 36/37/37
f 30/48/18 9/33/33 36/37/37
f 23/43/26 37/40/40 11/39/39
f 23/43/26 32/50/21 37/40/40
f 32/50/21 10/36/36 37/40/40
f 39/29/29 38/41/41 12/52/42
f 39/29/29 33/28/28 38/41/41
f 33/28/28 11/39/39 38/41/41
f 40/32/32 39/29/29 12/52/42
f 40/32/32 34/31/31 39/29/29
f 34/31/31 7/27/27 39/29/29
f 41/35/35 40/32/32 12/52/42
f 41/35/35 35/34/34 40/32/32
f 35/34/34 8/30/30 40/32/32
f 42/38/38 41/35/35 12/52/42
f 42/38/38 36/37/37 41/35/35
f 36/37/37 9/33/33 41/35/35
f 38/41/41 42/38/38 12/52/42
f 38/41/41 37/40/40 42/38/38
f 37/40/40 10/36/36 42/38/38
