# Blender v2.67 (sub 0) OBJ File: 'player.blend'
# www.blender.org
o Cube_Cube.002
v -0.172404 1.406404 0.093326
v -0.160139 1.445789 -0.139086
v -0.217706 1.521465 -0.017934
v -0.114364 0.953135 -0.142841
v -0.096313 0.516015 -0.155073
v 0.000000 1.418487 -0.166294
v 0.219618 -0.021795 -0.059896
v 0.000000 1.504148 0.107889
v 0.000000 0.953899 -0.121034
v 0.000000 0.929293 0.081357
v -0.163202 1.033881 0.075381
v 0.219618 -0.021183 0.059896
v 0.201623 0.515637 -0.163733
v 0.187322 0.544634 -0.008197
v 0.163202 1.033881 0.075381
v 0.000000 1.651911 0.000000
v 0.000000 1.950000 0.000000
v 0.000000 1.829647 -0.174195
v 0.000000 1.642784 -0.136189
v 0.000000 1.579968 -0.003167
v 0.000000 1.845483 0.171028
v 0.000000 1.636449 0.145690
v 0.096313 0.516015 -0.155073
v 0.114364 0.953135 -0.142841
v -0.187322 0.544634 -0.008197
v -0.201623 0.515637 -0.163733
v 0.217706 1.521465 -0.017934
v 0.160139 1.445789 -0.139086
v 0.172404 1.406404 0.093326
v 0.082012 0.544256 -0.016857
v 0.155650 -0.021413 0.054636
v -0.219618 -0.021183 0.059896
v 0.155650 -0.021566 -0.054636
v -0.219618 -0.021795 -0.059896
v 0.159246 1.883798 -0.000000
v 0.149744 1.665263 -0.000000
v 0.299898 1.165028 -0.041493
v 0.192909 1.167319 0.013334
v 0.216125 1.174443 -0.081786
v 0.332903 0.724575 -0.174362
v 0.319926 0.727906 -0.218840
v 0.370378 0.722135 -0.198579
v -0.082012 0.544256 -0.016857
v -0.155650 -0.021413 0.054636
v -0.155650 -0.021566 -0.054636
v -0.159246 1.883798 -0.000000
v -0.149744 1.665263 -0.000000
v -0.299898 1.165028 -0.041493
v -0.192909 1.167319 0.013334
v -0.216125 1.174443 -0.081786
v -0.332903 0.724575 -0.174362
v -0.319926 0.727906 -0.218840
v -0.370378 0.722135 -0.198579
vt 0.761905 0.071429
vt 0.000000 0.000000
vt 0.238096 0.904761
vt 0.761905 0.142857
vt 0.238095 0.452380
vt 0.238095 0.452381
vt 0.357143 0.452381
vt 0.119048 0.452380
vt 0.761905 0.000000
vt 0.880952 0.000000
vt 0.880952 0.071429
vt 0.880952 0.142857
vt 0.357143 0.904761
vn -0.949219 -0.195709 -0.246335
vn -0.979960 -0.198371 0.018098
vn 0.971408 -0.003892 -0.237383
vn 0.949219 -0.195709 -0.246335
vn -0.924105 -0.290880 0.247827
vn -0.971408 -0.003892 -0.237383
vn 0.979960 -0.198371 0.018098
vn 0.924105 -0.290880 0.247827
vn -0.509598 -0.058992 -0.858364
vn 0.466414 0.293558 -0.834407
vn 0.997101 0.000092 0.075686
vn -0.464675 -0.437239 -0.769951
vn 0.831904 -0.511460 -0.215217
vn -0.238716 -0.719230 0.652425
vn 0.537278 0.007508 -0.843349
vn 0.776330 -0.075106 0.625782
vn 0.772271 0.633717 0.044496
vn 0.517380 0.133183 0.845302
vn 0.624897 -0.364513 0.690329
vn -0.997101 0.000092 0.075686
vn 0.238716 -0.719230 0.652425
vn 0.464675 -0.437239 -0.769951
vn -0.831904 -0.511460 -0.215217
vn 0.566546 -0.523209 0.636586
vn 0.585589 -0.607807 -0.536271
vn 0.712638 0.049013 0.699789
vn -0.554308 -0.579455 0.597430
vn -0.517380 0.133183 0.845302
vn -0.773217 -0.188055 0.605579
vn -0.564776 -0.660298 -0.494980
vn 0.693655 0.018677 -0.720023
vn 0.666128 -0.147526 -0.731071
vn 0.773217 -0.188055 0.605579
vn 0.564318 -0.661153 -0.494339
vn -0.712638 0.049013 0.699789
vn -0.776330 -0.075106 0.625782
vn -0.537278 0.007508 -0.843349
vn -0.666128 -0.147526 -0.731071
vn -0.585284 -0.608631 -0.535691
vn -0.693655 0.018677 -0.720023
vn -0.566271 -0.524094 0.636097
vn 0.553880 -0.580401 0.596912
vn -0.772271 0.633717 0.044496
vn -0.466414 0.293558 -0.834407
vn -0.624897 -0.364513 0.690329
vn 0.509598 -0.058992 -0.858364
vn 0.000000 -0.556413 -0.830897
vn 0.900662 -0.434431 -0.006195
vn 0.000000 -0.999237 -0.039003
vn 0.000000 -0.550829 0.834590
vn 0.870724 0.491684 -0.005188
vn 0.000000 0.334666 0.942320
vn 0.000000 0.278756 -0.960326
vn 0.000000 0.999664 -0.024873
vn 0.000000 -0.229896 0.973205
vn 0.000000 0.377636 0.925932
vn 0.000000 0.998077 0.061708
vn 0.000000 -0.141697 -0.989898
vn 0.000000 0.255654 -0.966735
vn -0.870724 0.491684 -0.005188
vn -0.900662 -0.434431 -0.006195
s off
f 38/1/1 39/2/1 40/1/1
f 29/2/2 28/2/2 39/2/2
f 1/2/3 49/1/3 50/2/3
f 49/1/4 51/1/4 50/2/4
f 39/2/5 41/2/5 40/1/5
f 38/1/6 29/2/6 39/2/6
f 2/2/7 1/2/7 50/2/7
f 51/1/8 52/2/8 50/2/8
s 1
f 39/2/9 28/2/10 37/2/11
f 41/2/12 42/2/13 40/2/14
f 24/2/15 28/2/10 15/3/16
f 27/2/17 29/1/18 37/2/11
f 37/2/11 28/2/10 27/4/17
f 49/1/19 48/2/20 51/1/21
f 52/2/22 53/2/23 48/2/20
f 12/2/24 7/5/25 14/6/26
f 7/2/25 12/7/24 31/2/27
f 1/1/28 48/2/20 49/1/19
f 14/6/26 30/7/29 31/7/27
f 7/5/25 33/8/30 13/5/31
f 14/2/26 13/5/31 24/2/15
f 5/2/32 43/2/33 45/2/34
f 25/2/35 11/6/36 4/2/37
f 23/2/38 33/2/30 30/2/29
f 34/5/39 26/5/40 45/8/34
f 25/6/35 32/6/41 44/7/42
f 34/2/39 45/5/34 32/7/41
f 32/2/41 25/6/35 34/5/39
f 48/2/20 3/4/43 2/2/44
f 3/2/43 48/2/20 1/1/28
f 4/2/37 11/3/36 2/2/44
f 29/1/18 38/1/45 37/2/11
f 41/2/12 39/2/9 37/2/11
f 38/1/45 40/1/14 37/2/11
f 52/2/22 51/2/21 53/2/23
f 50/2/46 48/2/20 2/2/44
f 19/2/47 36/2/48 20/2/49
f 36/2/48 22/2/50 20/2/49
f 35/2/51 21/2/52 36/2/48
f 18/2/53 35/2/51 36/2/48
f 35/2/51 17/2/54 21/2/52
f 17/2/54 35/2/51 18/2/53
f 10/2/55 15/7/16 8/6/56
f 29/9/18 27/1/17 8/10/56
f 27/1/17 28/4/10 16/11/57
f 9/2/58 23/2/38 30/2/29
f 13/5/31 23/8/38 24/5/15
f 15/6/16 10/7/55 14/6/26
f 16/11/57 28/4/10 6/12/59
f 8/10/56 27/1/17 16/11/57
f 8/13/56 15/6/16 29/3/18
f 9/2/58 6/2/59 24/2/15
f 9/2/58 4/2/37 6/2/59
f 8/13/56 1/3/28 11/6/36
f 8/10/56 16/11/57 3/1/43
f 16/11/57 6/12/59 2/4/44
f 11/6/36 25/6/35 10/7/55
f 26/5/40 4/5/37 5/8/32
f 9/2/58 10/2/55 43/2/33
f 3/1/43 16/11/57 2/4/44
f 1/9/28 8/10/56 3/1/43
f 10/2/55 8/6/56 11/7/36
f 17/2/54 18/2/53 46/2/60
f 46/2/60 21/2/52 17/2/54
f 18/2/53 19/2/47 47/2/61
f 46/2/60 47/2/61 21/2/52
f 47/2/61 20/2/49 22/2/50
f 19/2/47 20/2/49 47/2/61
f 28/2/10 29/2/18 15/3/16
f 48/2/20 53/2/23 51/1/21
f 50/2/46 52/2/22 48/2/20
f 7/5/25 13/2/31 14/6/26
f 33/5/30 7/2/25 31/2/27
f 12/6/24 14/6/26 31/7/27
f 33/8/30 23/8/38 13/5/31
f 15/6/16 14/2/26 24/2/15
f 43/2/33 44/2/42 45/2/34
f 26/5/40 25/2/35 4/2/37
f 33/2/30 31/2/27 30/2/29
f 26/5/40 5/8/32 45/8/34
f 43/7/33 25/6/35 44/7/42
f 45/5/34 44/2/42 32/7/41
f 25/6/35 26/2/40 34/5/39
f 11/3/36 1/2/28 2/2/44
f 42/2/13 41/2/12 37/2/11
f 40/1/14 42/2/13 37/2/11
f 21/2/52 22/2/50 36/2/48
f 19/2/47 18/2/53 36/2/48
f 10/2/55 9/2/58 30/2/29
f 23/8/38 9/8/58 24/5/15
f 10/7/55 30/7/29 14/6/26
f 6/2/59 28/12/10 24/2/15
f 4/2/37 2/12/44 6/2/59
f 25/6/35 43/7/33 10/7/55
f 4/5/37 9/8/58 5/8/32
f 5/2/32 9/2/58 43/2/33
f 46/2/60 18/2/53 47/2/61
f 47/2/61 22/2/50 21/2/52
