# Blender v2.67 (sub 0) OBJ File: 'robot-dead-body.blend'
# www.blender.org
mtllib robot-dead-body.mtl
o robot
v -0.354546 1.454001 0.171671
v -0.354546 1.557529 -0.214699
v 0.345454 1.557529 -0.214699
v 0.345455 1.454001 0.171671
v -0.354546 1.936963 0.301081
v -0.354546 2.040491 -0.085289
v 0.345454 2.040491 -0.085289
v 0.345454 1.936963 0.301081
v -0.254546 0.800000 0.127727
v -0.254546 0.800000 -0.172273
v 0.245454 0.800000 -0.172273
v 0.245454 0.800000 0.127727
v -0.254546 1.450000 0.127727
v -0.254545 1.450000 -0.172273
v 0.245454 1.450000 -0.172273
v 0.245455 1.450000 0.127727
v -0.429546 1.025000 0.027727
v -0.429546 1.025000 -0.097273
v -0.304545 1.025000 -0.097273
v -0.304546 1.025000 0.027727
v -0.429546 1.325000 0.027727
v -0.429545 1.325000 -0.097273
v -0.304545 1.325000 -0.097273
v -0.304546 1.325000 0.027727
v 0.420455 0.975000 0.027727
v 0.420454 0.975000 -0.097273
v 0.295454 0.975000 -0.097273
v 0.295455 0.975000 0.027727
v 0.420454 0.675000 0.027727
v 0.420454 0.675000 -0.097273
v 0.295454 0.675000 -0.097273
v 0.295455 0.675000 0.027727
v 0.295455 1.025000 0.027727
v 0.295454 1.025000 -0.097273
v 0.420454 1.025000 -0.097273
v 0.420454 1.025000 0.027727
v 0.295455 1.325000 0.027727
v 0.295454 1.325000 -0.097273
v 0.420454 1.325000 -0.097273
v 0.420455 1.325000 0.027727
v -0.304546 0.975000 0.027727
v -0.304545 0.975000 -0.097273
v -0.429545 0.975000 -0.097273
v -0.429546 0.975000 0.027727
v -0.304546 0.675000 0.027727
v -0.304545 0.675000 -0.097273
v -0.429545 0.675000 -0.097273
v -0.429545 0.675000 0.027727
v -0.204545 0.400000 0.052726
v -0.204545 0.400000 -0.097274
v -0.054545 0.400000 -0.097274
v -0.054546 0.400000 0.052726
v -0.204546 0.750000 0.052727
v -0.204545 0.750000 -0.097273
v -0.054545 0.750000 -0.097273
v -0.054546 0.750000 0.052727
v -0.054546 0.350000 0.052726
v -0.054545 0.350000 -0.097274
v -0.204545 0.350000 -0.097274
v -0.204546 0.350000 0.052726
v -0.054546 -0.000000 0.052726
v -0.054545 0.000000 -0.097274
v -0.204545 -0.000000 -0.097274
v -0.204545 -0.000000 0.052726
v 0.195455 0.350000 0.052726
v 0.195454 0.350000 -0.097274
v 0.045454 0.350000 -0.097274
v 0.045455 0.350000 0.052726
v 0.195455 -0.000000 0.052726
v 0.195454 0.000000 -0.097274
v 0.045454 0.000000 -0.097274
v 0.045455 -0.000000 0.052726
v 0.045455 0.400000 0.052726
v 0.045454 0.400000 -0.097274
v 0.195454 0.400000 -0.097274
v 0.195455 0.400000 0.052726
v 0.045455 0.750000 0.052727
v 0.045454 0.750000 -0.097273
v 0.195454 0.750000 -0.097274
v 0.195455 0.750000 0.052727
v -0.187579 1.400000 0.135621
v 0.109789 1.400000 0.233970
v -0.187579 1.200000 0.135621
v 0.109789 1.200000 0.233970
v -0.204546 1.400000 0.117727
v 0.195455 1.400000 0.117727
v -0.204546 1.200000 0.117727
v 0.195455 1.200000 0.117727
vt 0.352001 0.448000
vt 0.128001 0.448001
vt 0.352000 0.288000
vt 0.000001 0.448002
vt 0.000000 0.288001
vt 0.736001 0.400000
vt 0.576001 0.400000
vt 0.576001 0.304000
vt 0.576001 0.096000
vt 0.576001 0.000000
vt 0.736001 0.000000
vt 0.480001 0.096000
vt 0.480001 0.304000
vt 0.736001 0.304000
vt 0.736001 0.096000
vt 0.832001 0.304000
vt 0.736001 0.608000
vt 0.576001 0.608000
vt 0.912001 0.376000
vt 0.872001 0.376000
vt 0.912002 0.336000
vt 0.872001 0.512000
vt 0.872001 0.472000
vt 0.912001 0.512000
vt 0.952001 0.471999
vt 0.912001 0.472000
vt 0.952001 0.376000
vt 0.832001 0.376000
vt 0.912001 0.608000
vt 0.872001 0.608000
vt 0.912001 0.096000
vt 0.872001 0.096000
vt 0.872000 0.000000
vt 0.832001 0.136000
vt 0.872001 0.136000
vt 0.832001 0.232000
vt 0.912001 0.232000
vt 0.872001 0.232000
vt 0.952001 0.232000
vt 0.952001 0.136000
vt 0.872001 0.272000
vt 0.912001 0.272000
vt 0.912001 0.136000
vt 0.664001 0.648000
vt 0.664001 0.688000
vt 0.624001 0.687999
vt 0.800001 0.687999
vt 0.760001 0.688000
vt 0.800000 0.647999
vt 0.760001 0.608000
vt 0.760001 0.648000
vt 0.664001 0.727999
vt 0.896001 0.647995
vt 0.896002 0.687995
vt 0.704001 0.824000
vt 0.664001 0.824000
vt 0.704001 0.728000
vt 0.624001 0.864000
vt 0.664001 0.864000
vt 0.664001 0.960000
vt 0.704001 0.960000
vt 0.744001 0.960000
vt 0.744001 0.864000
vt 0.664001 1.000000
vt 0.704001 1.000000
vt 0.704001 0.864000
vt 0.432001 0.736001
vt 0.384001 0.736001
vt 0.384001 0.688001
vt 0.384002 0.896001
vt 0.384001 0.848001
vt 0.432002 0.896001
vt 0.480001 0.848001
vt 0.432001 0.848001
vt 0.480001 0.736001
vt 0.336001 0.736001
vt 0.432001 0.688001
vt 0.432001 0.576001
vt 0.096000 0.896001
vt 0.048000 0.896001
vt 0.096000 0.784001
vt 0.000000 0.624001
vt 0.048000 0.624001
vt 0.048000 0.736000
vt 0.096000 0.736000
vt 0.144000 0.736000
vt 0.144000 0.624001
vt 0.048000 0.784001
vt 0.096000 0.624001
vt 0.048000 0.576001
vt 0.288001 0.896000
vt 0.240001 0.896000
vt 0.240001 0.784001
vt 0.192001 0.624001
vt 0.240001 0.624001
vt 0.192001 0.736001
vt 0.288001 0.736001
vt 0.240001 0.736001
vt 0.288001 0.624001
vt 0.336001 0.624001
vt 0.288001 0.784001
vt 0.288001 0.576001
vt 0.576001 0.768000
vt 0.528001 0.768000
vt 0.528001 0.720000
vt 0.528001 0.928000
vt 0.528001 0.880000
vt 0.576001 0.880000
vt 0.624001 0.880000
vt 0.624001 0.768000
vt 0.480001 0.768000
vt 0.576001 0.720000
vt 0.528001 0.608000
vt 0.128000 0.288000
vt 0.128000 0.160000
vt 0.128002 0.576001
vt 0.352000 0.159999
vt 0.128001 0.000000
vt 0.480001 0.447999
vt 0.480000 0.287999
vt 0.989258 0.930664
vt 0.829102 0.930664
vt 0.989258 0.829102
vt 0.999414 0.829102
vt 0.999414 0.930664
vt 0.992188 0.940430
vt 0.796875 0.999023
vt 0.829102 0.829102
vt 0.796875 0.760742
vt 0.992188 0.819336
vt 0.752930 0.930664
vt 0.832001 0.096000
vt 0.872002 0.335999
vt 0.832001 0.472000
vt 0.912000 0.000000
vt 0.624001 0.648000
vt 0.664001 0.608000
vt 0.760001 0.728000
vt 0.664001 0.728000
vt 0.624001 0.960000
vt 0.336002 0.848001
vt 0.384001 0.576001
vt 0.000000 0.736000
vt 0.096000 0.576001
vt 0.240001 0.576001
vt 0.576001 0.928000
vt 0.480001 0.880000
vt 0.576002 0.608000
vt 0.352002 0.575999
vt 0.351999 0.000000
vt 0.752930 0.829102
vn -0.000000 0.258820 -0.965926
vn 1.000000 0.000000 -0.000000
vn 0.000000 -1.000000 -0.000000
vn 0.000000 1.000000 0.000001
vn -1.000000 -0.000000 -0.000002
vn -0.000000 0.000001 -1.000000
vn 1.000000 0.000001 -0.000000
vn 0.000000 -0.000001 1.000000
vn -0.000000 -1.000000 -0.000001
vn -0.000001 1.000000 -0.000001
vn -1.000000 -0.000001 -0.000004
vn 0.000002 0.000001 -1.000000
vn 1.000000 -0.000000 0.000002
vn -0.000001 -0.000001 1.000000
vn 0.000001 -0.000000 1.000000
vn 1.000000 -0.000001 -0.000000
vn -0.000002 0.000000 -1.000000
vn -1.000000 -0.000001 0.000002
vn 0.000001 1.000000 0.000002
vn -0.000000 1.000000 0.000000
vn -1.000000 -0.000000 0.000002
vn 0.000001 -0.000001 1.000000
vn -0.000001 -0.000000 1.000000
vn -0.000001 1.000000 0.000001
vn -1.000000 -0.000001 -0.000003
vn 0.000001 0.000001 -1.000000
vn -0.000000 -0.000000 1.000000
vn -0.000002 0.000001 -1.000000
vn 0.000000 -0.965926 -0.258820
vn 0.000000 0.965926 0.258820
vn 0.000000 -0.258820 0.965926
vn -1.000000 -0.000000 0.000000
vn -0.314005 0.000000 0.949421
vn 0.805013 0.000000 0.593257
vn -0.000000 -1.000000 -0.000007
vn -0.725644 0.000000 0.688070
vn -0.000000 0.258820 -0.965925
vn 1.000000 -0.000000 -0.000002
vn 0.000003 -1.000000 0.000002
vn -1.000000 0.000001 0.000000
vn -0.000000 0.000000 -1.000000
vn 1.000000 0.000001 -0.000004
vn -0.000001 0.000001 -1.000000
vn -0.000002 -1.000000 0.000001
vn 1.000000 -0.000001 -0.000004
vn -0.000000 1.000000 0.000002
vn 1.000000 -0.000000 0.000001
vn -0.000001 0.000000 -1.000000
vn -0.000004 1.000000 0.000010
vn -0.725646 -0.000000 0.688069
usemtl robot
s off
f 6/1/1 7/2/1 2/3/1
f 7/2/2 8/4/2 4/5/2
f 12/6/3 9/7/3 10/8/3
f 14/9/4 13/10/4 16/11/4
f 13/12/5 14/9/5 9/13/5
f 11/14/6 10/8/6 15/15/6
f 12/16/7 11/14/7 15/15/7
f 16/17/8 13/18/8 9/7/8
f 18/19/9 19/20/9 17/21/9
f 24/22/10 23/23/10 21/24/10
f 21/25/11 22/26/11 17/27/11
f 22/26/12 23/23/12 19/20/12
f 20/28/13 19/20/13 23/23/13
f 17/29/14 20/30/14 24/22/14
f 32/31/15 29/32/15 25/33/15
f 29/34/16 30/35/16 25/36/16
f 27/37/17 26/38/17 30/35/17
f 28/39/18 27/37/18 32/40/18
f 25/41/19 26/38/19 28/42/19
f 31/43/9 30/35/9 32/31/9
f 34/44/9 35/45/9 36/46/9
f 40/47/20 39/48/20 37/49/20
f 37/50/21 38/51/21 34/44/21
f 38/51/17 39/48/17 35/45/17
f 36/52/7 35/45/7 39/48/7
f 33/53/22 36/54/22 40/47/22
f 48/55/23 45/56/23 44/57/23
f 45/58/13 46/59/13 42/60/13
f 43/61/12 42/60/12 46/59/12
f 44/62/11 43/61/11 48/63/11
f 41/64/24 42/60/24 44/65/24
f 47/66/9 46/59/9 45/56/9
f 50/67/9 51/68/9 52/69/9
f 56/70/4 55/71/4 53/72/4
f 53/73/25 54/74/25 49/75/25
f 54/74/26 55/71/26 51/68/26
f 52/76/13 51/68/13 55/71/13
f 49/77/27 52/69/27 53/78/27
f 64/79/8 61/80/8 60/81/8
f 61/82/13 62/83/13 58/84/13
f 59/85/26 58/84/26 62/83/26
f 60/86/25 59/85/25 64/87/25
f 57/88/4 58/84/4 60/81/4
f 63/89/9 62/83/9 61/90/9
f 72/91/22 69/92/22 65/93/22
f 69/94/16 70/95/16 65/96/16
f 67/97/28 66/98/28 71/99/28
f 68/76/18 67/97/18 72/100/18
f 65/93/4 66/98/4 68/101/4
f 71/99/9 70/95/9 72/102/9
f 74/103/9 75/104/9 76/105/9
f 80/106/4 79/107/4 78/108/4
f 77/109/18 78/108/18 73/110/18
f 78/108/28 79/107/28 74/103/28
f 76/111/7 75/104/7 79/107/7
f 73/112/15 76/105/15 80/113/15
f 2/3/29 3/114/29 4/115/29
f 8/116/30 7/2/30 6/1/30
f 1/117/31 4/115/31 8/118/31
f 5/119/32 6/1/32 1/120/32
f 82/121/33 81/122/33 84/123/33
f 84/123/34 88/124/34 86/125/34
f 82/121/20 86/126/20 85/127/20
f 83/128/35 87/129/35 88/130/35
f 81/122/36 85/131/36 83/128/36
f 7/2/37 3/114/37 2/3/37
f 3/114/2 7/2/2 4/5/2
f 11/14/3 12/6/3 10/8/3
f 15/15/4 14/9/4 16/11/4
f 14/9/32 10/8/32 9/13/32
f 10/8/6 14/9/6 15/15/6
f 16/132/38 12/16/38 15/15/38
f 12/6/8 16/17/8 9/7/8
f 19/20/39 20/133/39 17/21/39
f 23/23/20 22/26/20 21/24/20
f 22/26/40 18/19/40 17/27/40
f 18/19/41 22/26/41 19/20/41
f 24/134/13 20/28/13 23/23/13
f 21/24/14 17/29/14 24/22/14
f 28/135/15 32/31/15 25/33/15
f 30/35/42 26/38/42 25/36/42
f 31/43/43 27/37/43 30/35/43
f 27/37/21 31/43/21 32/40/21
f 26/38/4 27/37/4 28/42/4
f 30/35/9 29/32/9 32/31/9
f 33/136/44 34/44/44 36/46/44
f 39/48/20 38/51/20 37/49/20
f 33/137/18 37/50/18 34/44/18
f 34/44/6 38/51/6 35/45/6
f 40/138/45 36/52/45 39/48/45
f 37/49/22 33/53/22 40/47/22
f 45/56/23 41/139/23 44/57/23
f 41/140/13 45/58/13 42/60/13
f 47/66/6 43/61/6 46/59/6
f 43/61/40 47/66/40 48/63/40
f 42/60/46 43/61/46 44/65/46
f 48/55/9 47/66/9 45/56/9
f 49/77/9 50/67/9 52/69/9
f 55/71/4 54/74/4 53/72/4
f 54/74/40 50/67/40 49/75/40
f 50/67/41 54/74/41 51/68/41
f 56/141/47 52/76/47 55/71/47
f 52/69/14 56/142/14 53/78/14
f 61/80/14 57/88/14 60/81/14
f 57/143/47 61/82/47 58/84/47
f 63/89/41 59/85/41 62/83/41
f 59/85/40 63/89/40 64/87/40
f 58/84/46 59/85/46 60/81/46
f 64/144/9 63/89/9 61/90/9
f 68/101/22 72/91/22 65/93/22
f 70/95/42 66/98/42 65/96/42
f 66/98/48 70/95/48 71/99/48
f 67/97/21 71/99/21 72/100/21
f 66/98/4 67/97/4 68/101/4
f 70/95/9 69/145/9 72/102/9
f 73/112/9 74/103/9 76/105/9
f 77/146/4 80/106/4 78/108/4
f 78/108/21 74/103/21 73/110/21
f 79/107/48 75/104/48 74/103/48
f 80/147/45 76/111/45 79/107/45
f 77/148/22 73/112/22 80/113/22
f 1/117/29 2/3/29 4/115/29
f 5/149/30 8/116/30 6/1/30
f 5/150/31 1/117/31 8/118/31
f 6/1/32 2/3/32 1/120/32
f 81/122/33 83/128/33 84/123/33
f 82/121/34 84/123/34 86/125/34
f 81/122/49 82/121/49 85/127/49
f 84/123/3 83/128/3 88/130/3
f 85/131/50 87/151/50 83/128/50
