# Blender v2.67 (sub 0) OBJ File: 'scope.blend'
# www.blender.org
mtllib scope.mtl
o Circle
v 0.707107 0.707107 -0.000000
v 0.831470 0.555570 -0.000000
v 0.923880 0.382683 -0.000000
v 0.980785 0.195090 -0.000000
v 1.000000 0.000000 -0.000000
v 0.980785 -0.195090 0.000000
v 0.923880 -0.382683 0.000000
v 0.831470 -0.555570 0.000000
v 0.707107 -0.707107 0.000000
v 0.555570 -0.831470 0.000000
v 0.382683 -0.923880 0.000000
v 0.195090 -0.980785 0.000000
v 0.195092 0.980785 -0.000000
v 0.382685 0.923879 -0.000000
v 0.555572 0.831469 -0.000000
v 3.000000 2.000000 -0.000000
v 3.000000 -2.000000 0.000000
v -3.000001 2.000000 -0.000000
v -3.000001 -2.000000 0.000000
v -0.555572 -0.831469 0.000000
v -0.382686 -0.923879 0.000000
v -0.195092 -0.980785 0.000000
v -0.000002 -1.000000 0.000000
v -0.000000 1.000000 -0.000000
v -0.195091 0.980785 -0.000000
v -0.382684 0.923879 -0.000000
v -0.555571 0.831469 -0.000000
v -0.707107 0.707107 -0.000000
v -0.831470 0.555570 -0.000000
v -0.923880 0.382683 -0.000000
v -0.980786 0.195090 -0.000000
v -1.000000 -0.000000 0.000000
v -0.980786 -0.195091 0.000000
v -0.923880 -0.382684 0.000000
v -0.831470 -0.555570 0.000000
v -0.707107 -0.707107 0.000000
vt 0.617851 0.676776
vt 0.638578 0.638892
vt 1.000000 1.000000
vt 0.653980 0.595671
vt 0.663464 0.548773
vt 0.666667 0.500000
vt 0.663464 0.451227
vt 1.000000 0.000000
vt 0.653980 0.404329
vt 0.638578 0.361107
vt 0.617851 0.323223
vt 0.592595 0.292132
vt 0.563781 0.269030
vt 0.532515 0.254804
vt 0.563781 0.730970
vt 0.532515 0.745196
vt 0.592595 0.707867
vt 0.407405 0.292133
vt 0.382149 0.323223
vt 0.000000 0.000000
vt 0.436219 0.269030
vt 0.467485 0.254804
vt 0.436220 0.730970
vt 0.467485 0.745196
vt 0.000000 1.000000
vt 0.407405 0.707867
vt 0.382149 0.676776
vt 0.361422 0.638892
vt 0.346020 0.595671
vt 0.336536 0.548773
vt 0.333333 0.500000
vt 0.336536 0.451227
vt 0.346020 0.404329
vt 0.361422 0.361107
vt 0.500000 0.750000
vt 0.500000 0.250000
vn 0.000000 0.000000 1.000000
vn 0.000000 0.000001 1.000000
usemtl scope
s off
f 1/1/1 2/2/1 16/3/1
f 2/2/1 3/4/1 16/3/1
f 3/4/1 4/5/1 16/3/1
f 4/5/1 5/6/1 16/3/1
f 5/6/1 6/7/1 17/8/1
f 6/7/1 7/9/1 17/8/1
f 7/9/1 8/10/1 17/8/1
f 8/10/1 9/11/1 17/8/1
f 9/11/1 10/12/1 17/8/1
f 10/12/1 11/13/1 17/8/1
f 11/13/1 12/14/1 17/8/1
f 14/15/1 16/3/1 13/16/1
f 15/17/1 16/3/1 14/15/1
f 15/17/1 1/1/1 16/3/1
f 20/18/1 36/19/1 19/20/1
f 20/18/1 19/20/1 21/21/1
f 21/21/1 19/20/1 22/22/1
f 26/23/1 25/24/1 18/25/1
f 27/26/1 26/23/1 18/25/1
f 28/27/1 27/26/1 18/25/1
f 29/28/1 28/27/1 18/25/1
f 30/29/1 29/28/1 18/25/1
f 31/30/1 30/29/1 18/25/1
f 32/31/1 31/30/1 18/25/1
f 33/32/1 32/31/1 19/20/1
f 34/33/1 33/32/1 19/20/1
f 35/34/1 34/33/1 19/20/1
f 36/19/1 35/34/1 19/20/1
f 13/16/1 16/3/1 24/35/1
f 16/3/1 18/25/1 24/35/1
f 18/25/1 25/24/1 24/35/1
f 12/14/2 23/36/2 17/8/2
f 17/8/1 23/36/1 19/20/1
f 19/20/2 23/36/2 22/22/2
f 16/3/1 5/6/1 17/8/1
f 19/20/1 32/31/1 18/25/1
