# Blender v2.67 (sub 0) OBJ File: 'wall-3.blend'
# www.blender.org
mtllib wall-3.mtl
o wall-2.002_wall-2.001
v -2.000000 -0.050000 0.050000
v -2.000000 -0.050000 -0.050000
v 2.000000 -0.050000 -0.050000
v 2.000000 -0.050000 0.050000
v -2.000000 2.600000 0.050000
v -2.000000 2.600000 -0.050000
v 2.000000 2.600000 -0.050000
v 2.000000 2.600000 0.050000
vt -0.503725 1.000000
vt -0.503725 -0.000000
vt 1.488343 0.000000
vt 1.488344 0.999999
vt -0.503725 0.990000
vt -0.491530 1.000000
vt 1.476148 1.000000
vt 0.000016 0.000017
vt 0.999984 0.000016
vt 0.999984 0.025015
vt -0.493725 0.000000
vt 1.488343 1.000000
vt 1.488344 0.990000
vt 1.476148 0.000000
vt 0.000016 0.025015
vt -0.493725 1.000000
vn 0.000000 -0.000000 1.000000
vn -0.000000 1.000000 0.000000
vn -1.000000 0.000000 -0.000000
vn 0.000000 -0.000000 -1.000000
vn -0.000000 -1.000000 -0.000000
vn 1.000000 0.000000 0.000000
usemtl wall-2
s off
f 5/1/1 1/2/1 4/3/1
f 7/4/2 6/1/2 5/5/2
f 6/1/3 2/2/3 5/6/3
f 7/1/4 3/2/4 6/7/4
f 2/8/5 3/9/5 4/10/5
f 8/1/6 4/2/6 3/11/6
f 8/12/1 5/1/1 4/3/1
f 8/13/2 7/4/2 5/5/2
f 2/2/3 1/11/3 5/6/3
f 3/2/4 2/14/4 6/7/4
f 1/15/5 2/8/5 4/10/5
f 7/16/6 8/1/6 3/11/6
